# xmcd
#
# Track frame offsets: 
#        150
#        19720
#        37542
#        63485
#        78775
#        94267
#        114695
#        129355
#        145305
#        166020
#
# Disc length: 2427 seconds
#
# Revision: 3
# Processed by: cddbd v1.5.2PL0 Copyright (c) Steve Scherf et al.
# Submitted via: ExactAudioCopyFreeDBPlugin 1.0
#
DISCID=7209790a
DTITLE=Greg Perry - One For The Road
DYEAR=1975
DGENRE=Soul
TTITLE0=Variety Is The Spice Of Life
TTITLE1=I'll Be Comin' Back
TTITLE2=Will She Meet The Train In The Rain?
TTITLE3=Next Time I See You (I'm Gonna Be Ready)
TTITLE4=The Boogie Man
TTITLE5=Love Is Magic (Instrumental)
TTITLE6=I Want To Live And Let Live (Love And Let Love All The Time)
TTITLE7=Come On Down (Get Your Head Out Of The Clouds)
TTITLE8=Love Got Me Tired (But I Ain't Tired Of Love)
TTITLE9=One For The Road
EXTD=
EXTT0=
EXTT1=
EXTT2=
EXTT3=
EXTT4=
EXTT5=
EXTT6=
EXTT7=
EXTT8=
EXTT9=
PLAYORDER=
